<mxfile host="app.diagrams.net" agent="Mozilla/5.0 (Windows NT 10.0; Win64; x64) AppleWebKit/537.36 (KHTML, like Gecko) Chrome/130.0.0.0 Safari/537.36" version="24.8.3">
  <diagram name="Page-1" id="cbpZ-z44MVldmYqXeoSm">
    <mxGraphModel dx="1985" dy="1143" grid="1" gridSize="10" guides="1" tooltips="1" connect="1" arrows="1" fold="1" page="1" pageScale="1" pageWidth="1169" pageHeight="827" math="0" shadow="0">
      <root>
        <mxCell id="0" />
        <mxCell id="1" parent="0" />
        <mxCell id="IzbF5cxwdpubpWeo_fUA-1" value="Airline" style="whiteSpace=wrap;html=1;align=center;" vertex="1" parent="1">
          <mxGeometry x="330" y="234" width="100" height="40" as="geometry" />
        </mxCell>
        <mxCell id="IzbF5cxwdpubpWeo_fUA-2" value="Employee" style="whiteSpace=wrap;html=1;align=center;" vertex="1" parent="1">
          <mxGeometry x="710" y="190" width="100" height="40" as="geometry" />
        </mxCell>
        <mxCell id="IzbF5cxwdpubpWeo_fUA-3" value="Route" style="whiteSpace=wrap;html=1;align=center;" vertex="1" parent="1">
          <mxGeometry x="730" y="424" width="100" height="40" as="geometry" />
        </mxCell>
        <mxCell id="IzbF5cxwdpubpWeo_fUA-4" value="Aircraft" style="whiteSpace=wrap;html=1;align=center;" vertex="1" parent="1">
          <mxGeometry x="330" y="424" width="100" height="40" as="geometry" />
        </mxCell>
        <mxCell id="IzbF5cxwdpubpWeo_fUA-5" value="Crew" style="whiteSpace=wrap;html=1;align=center;" vertex="1" parent="1">
          <mxGeometry x="330" y="566" width="100" height="40" as="geometry" />
        </mxCell>
        <mxCell id="IzbF5cxwdpubpWeo_fUA-6" value="Transaction" style="whiteSpace=wrap;html=1;align=center;" vertex="1" parent="1">
          <mxGeometry x="762" y="280" width="100" height="40" as="geometry" />
        </mxCell>
        <mxCell id="IzbF5cxwdpubpWeo_fUA-7" value="&lt;font style=&quot;font-size: 9px;&quot;&gt;Airline_ID&lt;/font&gt;" style="ellipse;whiteSpace=wrap;html=1;align=center;fontStyle=4;" vertex="1" parent="1">
          <mxGeometry x="180" y="164" width="60" height="20" as="geometry" />
        </mxCell>
        <mxCell id="IzbF5cxwdpubpWeo_fUA-8" value="&lt;font style=&quot;font-size: 9px;&quot;&gt;Name&lt;/font&gt;" style="ellipse;whiteSpace=wrap;html=1;align=center;" vertex="1" parent="1">
          <mxGeometry x="250" y="174" width="60" height="20" as="geometry" />
        </mxCell>
        <mxCell id="IzbF5cxwdpubpWeo_fUA-9" value="&lt;font style=&quot;font-size: 9px;&quot;&gt;Employee_ID&lt;/font&gt;" style="ellipse;whiteSpace=wrap;html=1;align=center;fontStyle=4;" vertex="1" parent="1">
          <mxGeometry x="570" y="90" width="60" height="20" as="geometry" />
        </mxCell>
        <mxCell id="IzbF5cxwdpubpWeo_fUA-10" value="&lt;font style=&quot;font-size: 9px;&quot;&gt;Name&lt;/font&gt;" style="ellipse;whiteSpace=wrap;html=1;align=center;" vertex="1" parent="1">
          <mxGeometry x="650" y="90" width="60" height="20" as="geometry" />
        </mxCell>
        <mxCell id="IzbF5cxwdpubpWeo_fUA-11" value="&lt;font style=&quot;font-size: 9px;&quot;&gt;Transaction_ID&lt;/font&gt;" style="ellipse;whiteSpace=wrap;html=1;align=center;fontStyle=4;" vertex="1" parent="1">
          <mxGeometry x="938" y="280" width="70" height="20" as="geometry" />
        </mxCell>
        <mxCell id="IzbF5cxwdpubpWeo_fUA-12" value="&lt;font style=&quot;font-size: 9px;&quot;&gt;Date&lt;/font&gt;" style="ellipse;whiteSpace=wrap;html=1;align=center;" vertex="1" parent="1">
          <mxGeometry x="842" y="240" width="60" height="20" as="geometry" />
        </mxCell>
        <mxCell id="IzbF5cxwdpubpWeo_fUA-13" value="&lt;font style=&quot;font-size: 9px;&quot;&gt;Route_ID&lt;/font&gt;" style="ellipse;whiteSpace=wrap;html=1;align=center;fontStyle=4;" vertex="1" parent="1">
          <mxGeometry x="775" y="336" width="60" height="20" as="geometry" />
        </mxCell>
        <mxCell id="IzbF5cxwdpubpWeo_fUA-14" value="&lt;font style=&quot;font-size: 9px;&quot;&gt;Origin&lt;/font&gt;" style="ellipse;whiteSpace=wrap;html=1;align=center;" vertex="1" parent="1">
          <mxGeometry x="820" y="356" width="60" height="20" as="geometry" />
        </mxCell>
        <mxCell id="IzbF5cxwdpubpWeo_fUA-15" value="&lt;font style=&quot;font-size: 9px;&quot;&gt;Aircraft_ID&lt;/font&gt;" style="ellipse;whiteSpace=wrap;html=1;align=center;fontStyle=4;" vertex="1" parent="1">
          <mxGeometry x="230" y="384" width="60" height="20" as="geometry" />
        </mxCell>
        <mxCell id="IzbF5cxwdpubpWeo_fUA-16" value="&lt;font style=&quot;font-size: 9px;&quot;&gt;Capacity&lt;/font&gt;" style="ellipse;whiteSpace=wrap;html=1;align=center;" vertex="1" parent="1">
          <mxGeometry x="230" y="414" width="60" height="20" as="geometry" />
        </mxCell>
        <mxCell id="IzbF5cxwdpubpWeo_fUA-17" value="&lt;font style=&quot;font-size: 9px;&quot;&gt;Crew_ID &lt;/font&gt;" style="ellipse;whiteSpace=wrap;html=1;align=center;fontStyle=4;" vertex="1" parent="1">
          <mxGeometry x="216" y="575" width="60" height="20" as="geometry" />
        </mxCell>
        <mxCell id="IzbF5cxwdpubpWeo_fUA-18" value="&lt;font style=&quot;font-size: 9px;&quot;&gt;Major_Pilot&lt;/font&gt;" style="ellipse;whiteSpace=wrap;html=1;align=center;" vertex="1" parent="1">
          <mxGeometry x="251" y="480" width="60" height="20" as="geometry" />
        </mxCell>
        <mxCell id="IzbF5cxwdpubpWeo_fUA-19" value="&lt;font style=&quot;font-size: 9px;&quot;&gt;Address&lt;/font&gt;" style="ellipse;whiteSpace=wrap;html=1;align=center;" vertex="1" parent="1">
          <mxGeometry x="310" y="164" width="60" height="20" as="geometry" />
        </mxCell>
        <mxCell id="IzbF5cxwdpubpWeo_fUA-20" value="&lt;font style=&quot;font-size: 9px;&quot;&gt;Contact_Person&lt;/font&gt;" style="ellipse;whiteSpace=wrap;html=1;align=center;" vertex="1" parent="1">
          <mxGeometry x="180" y="204" width="80" height="20" as="geometry" />
        </mxCell>
        <mxCell id="IzbF5cxwdpubpWeo_fUA-21" value="&lt;font style=&quot;font-size: 9px;&quot;&gt;Phone_Number&lt;/font&gt;" style="ellipse;whiteSpace=wrap;html=1;align=center;" vertex="1" parent="1">
          <mxGeometry x="180" y="234" width="80" height="20" as="geometry" />
        </mxCell>
        <mxCell id="IzbF5cxwdpubpWeo_fUA-23" value="" style="endArrow=none;html=1;rounded=0;exitX=0.5;exitY=1;exitDx=0;exitDy=0;entryX=0.5;entryY=0;entryDx=0;entryDy=0;" edge="1" parent="1" source="IzbF5cxwdpubpWeo_fUA-19" target="IzbF5cxwdpubpWeo_fUA-1">
          <mxGeometry relative="1" as="geometry">
            <mxPoint x="290" y="234" as="sourcePoint" />
            <mxPoint x="450" y="234" as="targetPoint" />
          </mxGeometry>
        </mxCell>
        <mxCell id="IzbF5cxwdpubpWeo_fUA-24" value="" style="endArrow=none;html=1;rounded=0;entryX=0;entryY=0.5;entryDx=0;entryDy=0;exitX=0.5;exitY=1;exitDx=0;exitDy=0;" edge="1" parent="1" source="IzbF5cxwdpubpWeo_fUA-21" target="IzbF5cxwdpubpWeo_fUA-1">
          <mxGeometry relative="1" as="geometry">
            <mxPoint x="320" y="204" as="sourcePoint" />
            <mxPoint x="350" y="274" as="targetPoint" />
          </mxGeometry>
        </mxCell>
        <mxCell id="IzbF5cxwdpubpWeo_fUA-25" value="" style="endArrow=none;html=1;rounded=0;entryX=0;entryY=0.25;entryDx=0;entryDy=0;exitX=0.5;exitY=1;exitDx=0;exitDy=0;" edge="1" parent="1" source="IzbF5cxwdpubpWeo_fUA-20" target="IzbF5cxwdpubpWeo_fUA-1">
          <mxGeometry relative="1" as="geometry">
            <mxPoint x="330" y="214" as="sourcePoint" />
            <mxPoint x="340" y="244" as="targetPoint" />
          </mxGeometry>
        </mxCell>
        <mxCell id="IzbF5cxwdpubpWeo_fUA-26" value="" style="endArrow=none;html=1;rounded=0;entryX=0.25;entryY=0;entryDx=0;entryDy=0;exitX=0.5;exitY=1;exitDx=0;exitDy=0;" edge="1" parent="1" source="IzbF5cxwdpubpWeo_fUA-8" target="IzbF5cxwdpubpWeo_fUA-1">
          <mxGeometry relative="1" as="geometry">
            <mxPoint x="220" y="214" as="sourcePoint" />
            <mxPoint x="340" y="254" as="targetPoint" />
          </mxGeometry>
        </mxCell>
        <mxCell id="IzbF5cxwdpubpWeo_fUA-27" value="" style="endArrow=none;html=1;rounded=0;entryX=0;entryY=0;entryDx=0;entryDy=0;exitX=0.5;exitY=1;exitDx=0;exitDy=0;" edge="1" parent="1" source="IzbF5cxwdpubpWeo_fUA-7" target="IzbF5cxwdpubpWeo_fUA-1">
          <mxGeometry relative="1" as="geometry">
            <mxPoint x="230" y="224" as="sourcePoint" />
            <mxPoint x="350" y="264" as="targetPoint" />
          </mxGeometry>
        </mxCell>
        <mxCell id="IzbF5cxwdpubpWeo_fUA-29" value="&lt;font style=&quot;font-size: 9px;&quot;&gt;Address&lt;/font&gt;" style="ellipse;whiteSpace=wrap;html=1;align=center;" vertex="1" parent="1">
          <mxGeometry x="720" y="90" width="60" height="20" as="geometry" />
        </mxCell>
        <mxCell id="IzbF5cxwdpubpWeo_fUA-30" value="&lt;font style=&quot;font-size: 9px;&quot;&gt;Birthday&lt;/font&gt;" style="ellipse;whiteSpace=wrap;html=1;align=center;" vertex="1" parent="1">
          <mxGeometry x="790" y="100" width="60" height="20" as="geometry" />
        </mxCell>
        <mxCell id="IzbF5cxwdpubpWeo_fUA-31" value="&lt;font style=&quot;font-size: 9px;&quot;&gt;Gender&lt;/font&gt;" style="ellipse;whiteSpace=wrap;html=1;align=center;" vertex="1" parent="1">
          <mxGeometry x="590" y="160" width="60" height="20" as="geometry" />
        </mxCell>
        <mxCell id="IzbF5cxwdpubpWeo_fUA-32" value="&lt;font style=&quot;font-size: 9px;&quot;&gt;Position&lt;/font&gt;" style="ellipse;whiteSpace=wrap;html=1;align=center;" vertex="1" parent="1">
          <mxGeometry x="820" y="140" width="60" height="20" as="geometry" />
        </mxCell>
        <mxCell id="IzbF5cxwdpubpWeo_fUA-33" value="&lt;font style=&quot;font-size: 9px;&quot;&gt;Qualifications&lt;/font&gt;" style="ellipse;whiteSpace=wrap;html=1;align=center;" vertex="1" parent="1">
          <mxGeometry x="560" y="120" width="60" height="20" as="geometry" />
        </mxCell>
        <mxCell id="IzbF5cxwdpubpWeo_fUA-34" value="&lt;font style=&quot;font-size: 9px;&quot;&gt;day&lt;/font&gt;" style="ellipse;whiteSpace=wrap;html=1;align=center;" vertex="1" parent="1">
          <mxGeometry x="780" y="60" width="50" height="20" as="geometry" />
        </mxCell>
        <mxCell id="IzbF5cxwdpubpWeo_fUA-35" value="&lt;font style=&quot;font-size: 9px;&quot;&gt;month&lt;/font&gt;" style="ellipse;whiteSpace=wrap;html=1;align=center;" vertex="1" parent="1">
          <mxGeometry x="840" y="70" width="50" height="20" as="geometry" />
        </mxCell>
        <mxCell id="IzbF5cxwdpubpWeo_fUA-36" value="&lt;font style=&quot;font-size: 9px;&quot;&gt;year&lt;/font&gt;" style="ellipse;whiteSpace=wrap;html=1;align=center;" vertex="1" parent="1">
          <mxGeometry x="890" y="90" width="50" height="20" as="geometry" />
        </mxCell>
        <mxCell id="IzbF5cxwdpubpWeo_fUA-38" value="" style="endArrow=none;html=1;rounded=0;exitX=0.5;exitY=1;exitDx=0;exitDy=0;entryX=0;entryY=0;entryDx=0;entryDy=0;" edge="1" parent="1" source="IzbF5cxwdpubpWeo_fUA-9" target="IzbF5cxwdpubpWeo_fUA-2">
          <mxGeometry relative="1" as="geometry">
            <mxPoint x="640" y="100" as="sourcePoint" />
            <mxPoint x="800" y="100" as="targetPoint" />
          </mxGeometry>
        </mxCell>
        <mxCell id="IzbF5cxwdpubpWeo_fUA-39" value="" style="endArrow=none;html=1;rounded=0;exitX=0.5;exitY=1;exitDx=0;exitDy=0;entryX=0;entryY=0.25;entryDx=0;entryDy=0;" edge="1" parent="1" source="IzbF5cxwdpubpWeo_fUA-31" target="IzbF5cxwdpubpWeo_fUA-2">
          <mxGeometry relative="1" as="geometry">
            <mxPoint x="610" y="120" as="sourcePoint" />
            <mxPoint x="720" y="200" as="targetPoint" />
          </mxGeometry>
        </mxCell>
        <mxCell id="IzbF5cxwdpubpWeo_fUA-40" value="" style="endArrow=none;html=1;rounded=0;exitX=0.5;exitY=1;exitDx=0;exitDy=0;entryX=0;entryY=0;entryDx=0;entryDy=0;" edge="1" parent="1" source="IzbF5cxwdpubpWeo_fUA-33" target="IzbF5cxwdpubpWeo_fUA-2">
          <mxGeometry relative="1" as="geometry">
            <mxPoint x="630" y="190" as="sourcePoint" />
            <mxPoint x="720" y="210" as="targetPoint" />
          </mxGeometry>
        </mxCell>
        <mxCell id="IzbF5cxwdpubpWeo_fUA-41" value="" style="endArrow=none;html=1;rounded=0;exitX=0.5;exitY=1;exitDx=0;exitDy=0;entryX=0;entryY=0;entryDx=0;entryDy=0;" edge="1" parent="1" source="IzbF5cxwdpubpWeo_fUA-10" target="IzbF5cxwdpubpWeo_fUA-2">
          <mxGeometry relative="1" as="geometry">
            <mxPoint x="640" y="200" as="sourcePoint" />
            <mxPoint x="730" y="220" as="targetPoint" />
          </mxGeometry>
        </mxCell>
        <mxCell id="IzbF5cxwdpubpWeo_fUA-43" value="" style="endArrow=none;html=1;rounded=0;exitX=0.5;exitY=1;exitDx=0;exitDy=0;entryX=0.25;entryY=0;entryDx=0;entryDy=0;" edge="1" parent="1" source="IzbF5cxwdpubpWeo_fUA-29" target="IzbF5cxwdpubpWeo_fUA-2">
          <mxGeometry relative="1" as="geometry">
            <mxPoint x="690" y="120" as="sourcePoint" />
            <mxPoint x="720" y="200" as="targetPoint" />
          </mxGeometry>
        </mxCell>
        <mxCell id="IzbF5cxwdpubpWeo_fUA-44" value="" style="endArrow=none;html=1;rounded=0;exitX=0.5;exitY=1;exitDx=0;exitDy=0;entryX=0.5;entryY=0;entryDx=0;entryDy=0;" edge="1" parent="1" source="IzbF5cxwdpubpWeo_fUA-30" target="IzbF5cxwdpubpWeo_fUA-2">
          <mxGeometry relative="1" as="geometry">
            <mxPoint x="760" y="120" as="sourcePoint" />
            <mxPoint x="745" y="200" as="targetPoint" />
          </mxGeometry>
        </mxCell>
        <mxCell id="IzbF5cxwdpubpWeo_fUA-46" value="" style="endArrow=none;html=1;rounded=0;exitX=0.5;exitY=1;exitDx=0;exitDy=0;entryX=0;entryY=0;entryDx=0;entryDy=0;" edge="1" parent="1" source="IzbF5cxwdpubpWeo_fUA-34" target="IzbF5cxwdpubpWeo_fUA-30">
          <mxGeometry relative="1" as="geometry">
            <mxPoint x="830" y="130" as="sourcePoint" />
            <mxPoint x="770" y="200" as="targetPoint" />
          </mxGeometry>
        </mxCell>
        <mxCell id="IzbF5cxwdpubpWeo_fUA-47" value="" style="endArrow=none;html=1;rounded=0;exitX=0;exitY=1;exitDx=0;exitDy=0;entryX=0.5;entryY=0;entryDx=0;entryDy=0;" edge="1" parent="1" source="IzbF5cxwdpubpWeo_fUA-35" target="IzbF5cxwdpubpWeo_fUA-30">
          <mxGeometry relative="1" as="geometry">
            <mxPoint x="820" y="90" as="sourcePoint" />
            <mxPoint x="809" y="113" as="targetPoint" />
          </mxGeometry>
        </mxCell>
        <mxCell id="IzbF5cxwdpubpWeo_fUA-49" value="" style="endArrow=none;html=1;rounded=0;exitX=0;exitY=0.5;exitDx=0;exitDy=0;entryX=1;entryY=0;entryDx=0;entryDy=0;" edge="1" parent="1" source="IzbF5cxwdpubpWeo_fUA-36" target="IzbF5cxwdpubpWeo_fUA-30">
          <mxGeometry relative="1" as="geometry">
            <mxPoint x="859" y="97" as="sourcePoint" />
            <mxPoint x="830" y="110" as="targetPoint" />
          </mxGeometry>
        </mxCell>
        <mxCell id="IzbF5cxwdpubpWeo_fUA-50" value="" style="endArrow=none;html=1;rounded=0;exitX=0.5;exitY=1;exitDx=0;exitDy=0;entryX=0.75;entryY=0;entryDx=0;entryDy=0;" edge="1" parent="1" source="IzbF5cxwdpubpWeo_fUA-32" target="IzbF5cxwdpubpWeo_fUA-2">
          <mxGeometry relative="1" as="geometry">
            <mxPoint x="830" y="130" as="sourcePoint" />
            <mxPoint x="770" y="200" as="targetPoint" />
          </mxGeometry>
        </mxCell>
        <mxCell id="IzbF5cxwdpubpWeo_fUA-51" value="&lt;font style=&quot;font-size: 9px;&quot;&gt;Model&lt;/font&gt;" style="ellipse;whiteSpace=wrap;html=1;align=center;" vertex="1" parent="1">
          <mxGeometry x="250" y="354" width="60" height="20" as="geometry" />
        </mxCell>
        <mxCell id="IzbF5cxwdpubpWeo_fUA-52" value="" style="endArrow=none;html=1;rounded=0;entryX=0;entryY=0;entryDx=0;entryDy=0;exitX=1;exitY=0.5;exitDx=0;exitDy=0;" edge="1" parent="1" source="IzbF5cxwdpubpWeo_fUA-51" target="IzbF5cxwdpubpWeo_fUA-4">
          <mxGeometry relative="1" as="geometry">
            <mxPoint x="230" y="264" as="sourcePoint" />
            <mxPoint x="340" y="264" as="targetPoint" />
          </mxGeometry>
        </mxCell>
        <mxCell id="IzbF5cxwdpubpWeo_fUA-53" value="" style="endArrow=none;html=1;rounded=0;entryX=0;entryY=0.25;entryDx=0;entryDy=0;exitX=1;exitY=0.5;exitDx=0;exitDy=0;" edge="1" parent="1" source="IzbF5cxwdpubpWeo_fUA-15" target="IzbF5cxwdpubpWeo_fUA-4">
          <mxGeometry relative="1" as="geometry">
            <mxPoint x="320" y="374" as="sourcePoint" />
            <mxPoint x="340" y="434" as="targetPoint" />
          </mxGeometry>
        </mxCell>
        <mxCell id="IzbF5cxwdpubpWeo_fUA-54" value="" style="endArrow=none;html=1;rounded=0;entryX=0;entryY=0.5;entryDx=0;entryDy=0;exitX=1;exitY=0.5;exitDx=0;exitDy=0;" edge="1" parent="1" source="IzbF5cxwdpubpWeo_fUA-16" target="IzbF5cxwdpubpWeo_fUA-4">
          <mxGeometry relative="1" as="geometry">
            <mxPoint x="300" y="404" as="sourcePoint" />
            <mxPoint x="340" y="444" as="targetPoint" />
          </mxGeometry>
        </mxCell>
        <mxCell id="IzbF5cxwdpubpWeo_fUA-55" value="&lt;font style=&quot;font-size: 9px;&quot;&gt;Destination&lt;/font&gt;" style="ellipse;whiteSpace=wrap;html=1;align=center;" vertex="1" parent="1">
          <mxGeometry x="730" y="354" width="60" height="20" as="geometry" />
        </mxCell>
        <mxCell id="IzbF5cxwdpubpWeo_fUA-56" value="&lt;font style=&quot;font-size: 9px;&quot;&gt;Distance&lt;/font&gt;" style="ellipse;whiteSpace=wrap;html=1;align=center;" vertex="1" parent="1">
          <mxGeometry x="660" y="356" width="60" height="20" as="geometry" />
        </mxCell>
        <mxCell id="IzbF5cxwdpubpWeo_fUA-57" value="&lt;font style=&quot;font-size: 9px;&quot;&gt;Classification &lt;/font&gt;" style="ellipse;whiteSpace=wrap;html=1;align=center;" vertex="1" parent="1">
          <mxGeometry x="850" y="384" width="60" height="20" as="geometry" />
        </mxCell>
        <mxCell id="IzbF5cxwdpubpWeo_fUA-58" value="" style="endArrow=none;html=1;rounded=0;entryX=1;entryY=0.75;entryDx=0;entryDy=0;exitX=0.5;exitY=1;exitDx=0;exitDy=0;" edge="1" parent="1" source="IzbF5cxwdpubpWeo_fUA-57" target="IzbF5cxwdpubpWeo_fUA-3">
          <mxGeometry relative="1" as="geometry">
            <mxPoint x="320" y="374" as="sourcePoint" />
            <mxPoint x="340" y="434" as="targetPoint" />
          </mxGeometry>
        </mxCell>
        <mxCell id="IzbF5cxwdpubpWeo_fUA-59" value="" style="endArrow=none;html=1;rounded=0;entryX=1;entryY=0;entryDx=0;entryDy=0;exitX=0.5;exitY=1;exitDx=0;exitDy=0;" edge="1" parent="1" source="IzbF5cxwdpubpWeo_fUA-14" target="IzbF5cxwdpubpWeo_fUA-3">
          <mxGeometry relative="1" as="geometry">
            <mxPoint x="800" y="384" as="sourcePoint" />
            <mxPoint x="790" y="434" as="targetPoint" />
          </mxGeometry>
        </mxCell>
        <mxCell id="IzbF5cxwdpubpWeo_fUA-60" value="" style="endArrow=none;html=1;rounded=0;entryX=0.75;entryY=0;entryDx=0;entryDy=0;exitX=0.5;exitY=1;exitDx=0;exitDy=0;" edge="1" parent="1" source="IzbF5cxwdpubpWeo_fUA-13" target="IzbF5cxwdpubpWeo_fUA-3">
          <mxGeometry relative="1" as="geometry">
            <mxPoint x="730" y="384" as="sourcePoint" />
            <mxPoint x="768" y="435" as="targetPoint" />
          </mxGeometry>
        </mxCell>
        <mxCell id="IzbF5cxwdpubpWeo_fUA-61" value="" style="endArrow=none;html=1;rounded=0;entryX=0.631;entryY=-0.022;entryDx=0;entryDy=0;exitX=1;exitY=1;exitDx=0;exitDy=0;entryPerimeter=0;" edge="1" parent="1" source="IzbF5cxwdpubpWeo_fUA-55" target="IzbF5cxwdpubpWeo_fUA-3">
          <mxGeometry relative="1" as="geometry">
            <mxPoint x="711" y="401" as="sourcePoint" />
            <mxPoint x="740" y="434" as="targetPoint" />
          </mxGeometry>
        </mxCell>
        <mxCell id="IzbF5cxwdpubpWeo_fUA-62" value="" style="endArrow=none;html=1;rounded=0;entryX=0.5;entryY=0;entryDx=0;entryDy=0;exitX=1;exitY=0.5;exitDx=0;exitDy=0;" edge="1" parent="1" source="IzbF5cxwdpubpWeo_fUA-56" target="IzbF5cxwdpubpWeo_fUA-3">
          <mxGeometry relative="1" as="geometry">
            <mxPoint x="721" y="431" as="sourcePoint" />
            <mxPoint x="740" y="444" as="targetPoint" />
          </mxGeometry>
        </mxCell>
        <mxCell id="IzbF5cxwdpubpWeo_fUA-63" value="&lt;font style=&quot;font-size: 9px;&quot;&gt;Hostess2&lt;/font&gt;" style="ellipse;whiteSpace=wrap;html=1;align=center;" vertex="1" parent="1">
          <mxGeometry x="236" y="502" width="60" height="20" as="geometry" />
        </mxCell>
        <mxCell id="IzbF5cxwdpubpWeo_fUA-64" value="&lt;font style=&quot;font-size: 9px;&quot;&gt;Hostess1&lt;/font&gt;" style="ellipse;whiteSpace=wrap;html=1;align=center;" vertex="1" parent="1">
          <mxGeometry x="226" y="526" width="60" height="20" as="geometry" />
        </mxCell>
        <mxCell id="IzbF5cxwdpubpWeo_fUA-65" value="&lt;font style=&quot;font-size: 9px;&quot;&gt;Assistant_Pilot&lt;/font&gt;" style="ellipse;whiteSpace=wrap;html=1;align=center;" vertex="1" parent="1">
          <mxGeometry x="201" y="546" width="70" height="20" as="geometry" />
        </mxCell>
        <mxCell id="IzbF5cxwdpubpWeo_fUA-66" value="" style="endArrow=none;html=1;rounded=0;entryX=0;entryY=0.75;entryDx=0;entryDy=0;exitX=1;exitY=0.5;exitDx=0;exitDy=0;" edge="1" parent="1" source="IzbF5cxwdpubpWeo_fUA-17" target="IzbF5cxwdpubpWeo_fUA-5">
          <mxGeometry relative="1" as="geometry">
            <mxPoint x="211" y="426" as="sourcePoint" />
            <mxPoint x="316" y="566" as="targetPoint" />
          </mxGeometry>
        </mxCell>
        <mxCell id="IzbF5cxwdpubpWeo_fUA-67" value="" style="endArrow=none;html=1;rounded=0;entryX=0;entryY=0;entryDx=0;entryDy=0;exitX=1;exitY=1;exitDx=0;exitDy=0;" edge="1" parent="1" source="IzbF5cxwdpubpWeo_fUA-63" target="IzbF5cxwdpubpWeo_fUA-5">
          <mxGeometry relative="1" as="geometry">
            <mxPoint x="341" y="520" as="sourcePoint" />
            <mxPoint x="291" y="566" as="targetPoint" />
          </mxGeometry>
        </mxCell>
        <mxCell id="IzbF5cxwdpubpWeo_fUA-68" value="" style="endArrow=none;html=1;rounded=0;entryX=0;entryY=0.25;entryDx=0;entryDy=0;exitX=1;exitY=1;exitDx=0;exitDy=0;" edge="1" parent="1" source="IzbF5cxwdpubpWeo_fUA-64" target="IzbF5cxwdpubpWeo_fUA-5">
          <mxGeometry relative="1" as="geometry">
            <mxPoint x="338" y="533" as="sourcePoint" />
            <mxPoint x="337" y="576" as="targetPoint" />
          </mxGeometry>
        </mxCell>
        <mxCell id="IzbF5cxwdpubpWeo_fUA-69" value="" style="endArrow=none;html=1;rounded=0;entryX=0;entryY=0.5;entryDx=0;entryDy=0;exitX=1;exitY=0.5;exitDx=0;exitDy=0;" edge="1" parent="1" source="IzbF5cxwdpubpWeo_fUA-65" target="IzbF5cxwdpubpWeo_fUA-5">
          <mxGeometry relative="1" as="geometry">
            <mxPoint x="323" y="553" as="sourcePoint" />
            <mxPoint x="337" y="586" as="targetPoint" />
          </mxGeometry>
        </mxCell>
        <mxCell id="IzbF5cxwdpubpWeo_fUA-70" value="" style="endArrow=none;html=1;rounded=0;entryX=0;entryY=0;entryDx=0;entryDy=0;exitX=1;exitY=1;exitDx=0;exitDy=0;" edge="1" parent="1" source="IzbF5cxwdpubpWeo_fUA-18" target="IzbF5cxwdpubpWeo_fUA-5">
          <mxGeometry relative="1" as="geometry">
            <mxPoint x="341" y="520" as="sourcePoint" />
            <mxPoint x="316" y="566" as="targetPoint" />
          </mxGeometry>
        </mxCell>
        <mxCell id="IzbF5cxwdpubpWeo_fUA-71" value="&lt;font style=&quot;font-size: 9px;&quot;&gt;Description&lt;/font&gt;" style="ellipse;whiteSpace=wrap;html=1;align=center;" vertex="1" parent="1">
          <mxGeometry x="912" y="250" width="60" height="20" as="geometry" />
        </mxCell>
        <mxCell id="IzbF5cxwdpubpWeo_fUA-72" value="&lt;font style=&quot;font-size: 9px;&quot;&gt;Amount&lt;/font&gt;" style="ellipse;whiteSpace=wrap;html=1;align=center;" vertex="1" parent="1">
          <mxGeometry x="932" y="310" width="60" height="20" as="geometry" />
        </mxCell>
        <mxCell id="IzbF5cxwdpubpWeo_fUA-73" value="" style="endArrow=none;html=1;rounded=0;entryX=1;entryY=0.75;entryDx=0;entryDy=0;exitX=0;exitY=0.5;exitDx=0;exitDy=0;" edge="1" parent="1" source="IzbF5cxwdpubpWeo_fUA-72" target="IzbF5cxwdpubpWeo_fUA-6">
          <mxGeometry relative="1" as="geometry">
            <mxPoint x="703" y="309" as="sourcePoint" />
            <mxPoint x="953" y="239" as="targetPoint" />
          </mxGeometry>
        </mxCell>
        <mxCell id="IzbF5cxwdpubpWeo_fUA-74" value="" style="endArrow=none;html=1;rounded=0;entryX=1;entryY=0.5;entryDx=0;entryDy=0;exitX=0;exitY=0.5;exitDx=0;exitDy=0;" edge="1" parent="1" source="IzbF5cxwdpubpWeo_fUA-11" target="IzbF5cxwdpubpWeo_fUA-6">
          <mxGeometry relative="1" as="geometry">
            <mxPoint x="929" y="219" as="sourcePoint" />
            <mxPoint x="928" y="239" as="targetPoint" />
          </mxGeometry>
        </mxCell>
        <mxCell id="IzbF5cxwdpubpWeo_fUA-75" value="" style="endArrow=none;html=1;rounded=0;entryX=1;entryY=0.25;entryDx=0;entryDy=0;exitX=0;exitY=0.5;exitDx=0;exitDy=0;" edge="1" parent="1" source="IzbF5cxwdpubpWeo_fUA-71" target="IzbF5cxwdpubpWeo_fUA-6">
          <mxGeometry relative="1" as="geometry">
            <mxPoint x="929" y="228" as="sourcePoint" />
            <mxPoint x="903" y="239" as="targetPoint" />
          </mxGeometry>
        </mxCell>
        <mxCell id="IzbF5cxwdpubpWeo_fUA-76" value="" style="endArrow=none;html=1;rounded=0;entryX=1;entryY=0;entryDx=0;entryDy=0;exitX=0.5;exitY=1;exitDx=0;exitDy=0;" edge="1" parent="1" source="IzbF5cxwdpubpWeo_fUA-12" target="IzbF5cxwdpubpWeo_fUA-6">
          <mxGeometry relative="1" as="geometry">
            <mxPoint x="903" y="239" as="sourcePoint" />
            <mxPoint x="903" y="249" as="targetPoint" />
          </mxGeometry>
        </mxCell>
        <mxCell id="IzbF5cxwdpubpWeo_fUA-77" value="has" style="shape=rhombus;perimeter=rhombusPerimeter;whiteSpace=wrap;html=1;align=center;" vertex="1" parent="1">
          <mxGeometry x="350" y="334" width="60" height="40" as="geometry" />
        </mxCell>
        <mxCell id="IzbF5cxwdpubpWeo_fUA-78" value="" style="endArrow=none;html=1;rounded=0;exitX=0.5;exitY=1;exitDx=0;exitDy=0;entryX=0.5;entryY=0;entryDx=0;entryDy=0;" edge="1" parent="1" source="IzbF5cxwdpubpWeo_fUA-1" target="IzbF5cxwdpubpWeo_fUA-77">
          <mxGeometry relative="1" as="geometry">
            <mxPoint x="470" y="384" as="sourcePoint" />
            <mxPoint x="630" y="384" as="targetPoint" />
          </mxGeometry>
        </mxCell>
        <mxCell id="IzbF5cxwdpubpWeo_fUA-79" value="" style="endArrow=none;html=1;rounded=0;exitX=0.5;exitY=1;exitDx=0;exitDy=0;entryX=0.5;entryY=0;entryDx=0;entryDy=0;" edge="1" parent="1" source="IzbF5cxwdpubpWeo_fUA-77" target="IzbF5cxwdpubpWeo_fUA-4">
          <mxGeometry relative="1" as="geometry">
            <mxPoint x="390" y="284" as="sourcePoint" />
            <mxPoint x="395" y="344" as="targetPoint" />
          </mxGeometry>
        </mxCell>
        <mxCell id="IzbF5cxwdpubpWeo_fUA-80" value="M" style="text;strokeColor=none;fillColor=none;spacingLeft=4;spacingRight=4;overflow=hidden;rotatable=0;points=[[0,0.5],[1,0.5]];portConstraint=eastwest;fontSize=12;whiteSpace=wrap;html=1;" vertex="1" parent="1">
          <mxGeometry x="360" y="404" width="40" height="30" as="geometry" />
        </mxCell>
        <mxCell id="IzbF5cxwdpubpWeo_fUA-81" value="1" style="text;strokeColor=none;fillColor=none;spacingLeft=4;spacingRight=4;overflow=hidden;rotatable=0;points=[[0,0.5],[1,0.5]];portConstraint=eastwest;fontSize=12;whiteSpace=wrap;html=1;" vertex="1" parent="1">
          <mxGeometry x="362" y="269" width="40" height="30" as="geometry" />
        </mxCell>
        <mxCell id="IzbF5cxwdpubpWeo_fUA-82" value="assigned" style="shape=rhombus;perimeter=rhombusPerimeter;whiteSpace=wrap;html=1;align=center;" vertex="1" parent="1">
          <mxGeometry x="520" y="424" width="60" height="40" as="geometry" />
        </mxCell>
        <mxCell id="IzbF5cxwdpubpWeo_fUA-84" value="" style="endArrow=none;html=1;rounded=0;exitX=1;exitY=0.5;exitDx=0;exitDy=0;entryX=0;entryY=0.5;entryDx=0;entryDy=0;" edge="1" parent="1" source="IzbF5cxwdpubpWeo_fUA-4" target="IzbF5cxwdpubpWeo_fUA-82">
          <mxGeometry relative="1" as="geometry">
            <mxPoint x="390" y="284" as="sourcePoint" />
            <mxPoint x="390" y="344" as="targetPoint" />
          </mxGeometry>
        </mxCell>
        <mxCell id="IzbF5cxwdpubpWeo_fUA-85" value="" style="endArrow=none;html=1;rounded=0;exitX=1;exitY=0.5;exitDx=0;exitDy=0;entryX=0;entryY=0.5;entryDx=0;entryDy=0;" edge="1" parent="1" source="IzbF5cxwdpubpWeo_fUA-82" target="IzbF5cxwdpubpWeo_fUA-3">
          <mxGeometry relative="1" as="geometry">
            <mxPoint x="620" y="454" as="sourcePoint" />
            <mxPoint x="710" y="454" as="targetPoint" />
          </mxGeometry>
        </mxCell>
        <mxCell id="IzbF5cxwdpubpWeo_fUA-86" value="M" style="text;strokeColor=none;fillColor=none;spacingLeft=4;spacingRight=4;overflow=hidden;rotatable=0;points=[[0,0.5],[1,0.5]];portConstraint=eastwest;fontSize=12;whiteSpace=wrap;html=1;" vertex="1" parent="1">
          <mxGeometry x="427" y="423" width="40" height="30" as="geometry" />
        </mxCell>
        <mxCell id="IzbF5cxwdpubpWeo_fUA-87" value="M" style="text;strokeColor=none;fillColor=none;spacingLeft=4;spacingRight=4;overflow=hidden;rotatable=0;points=[[0,0.5],[1,0.5]];portConstraint=eastwest;fontSize=12;whiteSpace=wrap;html=1;" vertex="1" parent="1">
          <mxGeometry x="711" y="424" width="40" height="30" as="geometry" />
        </mxCell>
        <mxCell id="IzbF5cxwdpubpWeo_fUA-89" value="&lt;span id=&quot;docs-internal-guid-172fcdb6-7fff-b797-0929-80909b8c8616&quot;&gt;&lt;span style=&quot;font-family: Arial, sans-serif; background-color: transparent; font-variant-numeric: normal; font-variant-east-asian: normal; font-variant-alternates: normal; font-variant-position: normal; vertical-align: baseline; white-space-collapse: preserve;&quot;&gt;&lt;font style=&quot;font-size: 9px;&quot;&gt;number_of_passengers&lt;/font&gt;&lt;/span&gt;&lt;/span&gt;" style="ellipse;whiteSpace=wrap;html=1;align=center;" vertex="1" parent="1">
          <mxGeometry x="470" y="384" width="100" height="20" as="geometry" />
        </mxCell>
        <mxCell id="IzbF5cxwdpubpWeo_fUA-90" value="&lt;span id=&quot;docs-internal-guid-f576a3a5-7fff-0e64-ca20-2b9b1e468da5&quot;&gt;&lt;span style=&quot;font-family: Arial, sans-serif; background-color: transparent; font-variant-numeric: normal; font-variant-east-asian: normal; font-variant-alternates: normal; font-variant-position: normal; vertical-align: baseline; white-space-collapse: preserve;&quot;&gt;&lt;font style=&quot;font-size: 9px;&quot;&gt;price_per_passenger&lt;/font&gt;&lt;/span&gt;&lt;/span&gt;" style="ellipse;whiteSpace=wrap;html=1;align=center;" vertex="1" parent="1">
          <mxGeometry x="580" y="384" width="100" height="20" as="geometry" />
        </mxCell>
        <mxCell id="IzbF5cxwdpubpWeo_fUA-91" value="&lt;span id=&quot;docs-internal-guid-3edaf881-7fff-5cf4-f57e-acd72f7187d4&quot;&gt;&lt;span style=&quot;font-family: Arial, sans-serif; background-color: transparent; font-variant-numeric: normal; font-variant-east-asian: normal; font-variant-alternates: normal; font-variant-position: normal; vertical-align: baseline; white-space-collapse: preserve;&quot;&gt;&lt;font style=&quot;font-size: 9px;&quot;&gt;departure_date_time&lt;/font&gt;&lt;/span&gt;&lt;/span&gt;" style="ellipse;whiteSpace=wrap;html=1;align=center;" vertex="1" parent="1">
          <mxGeometry x="447" y="474" width="100" height="20" as="geometry" />
        </mxCell>
        <mxCell id="IzbF5cxwdpubpWeo_fUA-92" value="&lt;span id=&quot;docs-internal-guid-6525bd35-7fff-e80a-8670-55b1b38abba3&quot;&gt;&lt;span style=&quot;font-family: Arial, sans-serif; background-color: transparent; font-variant-numeric: normal; font-variant-east-asian: normal; font-variant-alternates: normal; font-variant-position: normal; vertical-align: baseline; white-space-collapse: preserve;&quot;&gt;&lt;font style=&quot;font-size: 9px;&quot;&gt;arrival_date_time &lt;/font&gt;&lt;/span&gt;&lt;/span&gt;" style="ellipse;whiteSpace=wrap;html=1;align=center;" vertex="1" parent="1">
          <mxGeometry x="560" y="474" width="100" height="20" as="geometry" />
        </mxCell>
        <mxCell id="IzbF5cxwdpubpWeo_fUA-94" value="&lt;font style=&quot;font-size: 9px;&quot;&gt;time_spent&lt;/font&gt;" style="ellipse;whiteSpace=wrap;html=1;align=center;dashed=1;" vertex="1" parent="1">
          <mxGeometry x="520" y="502" width="70" height="16" as="geometry" />
        </mxCell>
        <mxCell id="IzbF5cxwdpubpWeo_fUA-96" value="" style="endArrow=none;html=1;rounded=0;exitX=0.5;exitY=1;exitDx=0;exitDy=0;entryX=0;entryY=0;entryDx=0;entryDy=0;" edge="1" parent="1" source="IzbF5cxwdpubpWeo_fUA-89" target="IzbF5cxwdpubpWeo_fUA-82">
          <mxGeometry relative="1" as="geometry">
            <mxPoint x="440" y="454" as="sourcePoint" />
            <mxPoint x="530" y="454" as="targetPoint" />
          </mxGeometry>
        </mxCell>
        <mxCell id="IzbF5cxwdpubpWeo_fUA-97" value="" style="endArrow=none;html=1;rounded=0;exitX=0;exitY=1;exitDx=0;exitDy=0;entryX=1;entryY=0;entryDx=0;entryDy=0;" edge="1" parent="1" source="IzbF5cxwdpubpWeo_fUA-90" target="IzbF5cxwdpubpWeo_fUA-82">
          <mxGeometry relative="1" as="geometry">
            <mxPoint x="530" y="414" as="sourcePoint" />
            <mxPoint x="545" y="444" as="targetPoint" />
          </mxGeometry>
        </mxCell>
        <mxCell id="IzbF5cxwdpubpWeo_fUA-98" value="" style="endArrow=none;html=1;rounded=0;exitX=0.5;exitY=0;exitDx=0;exitDy=0;entryX=1;entryY=1;entryDx=0;entryDy=0;" edge="1" parent="1" source="IzbF5cxwdpubpWeo_fUA-92" target="IzbF5cxwdpubpWeo_fUA-82">
          <mxGeometry relative="1" as="geometry">
            <mxPoint x="604" y="411" as="sourcePoint" />
            <mxPoint x="575" y="444" as="targetPoint" />
          </mxGeometry>
        </mxCell>
        <mxCell id="IzbF5cxwdpubpWeo_fUA-99" value="" style="endArrow=none;html=1;rounded=0;exitX=0.5;exitY=0;exitDx=0;exitDy=0;entryX=0;entryY=1;entryDx=0;entryDy=0;" edge="1" parent="1" source="IzbF5cxwdpubpWeo_fUA-91" target="IzbF5cxwdpubpWeo_fUA-82">
          <mxGeometry relative="1" as="geometry">
            <mxPoint x="620" y="484" as="sourcePoint" />
            <mxPoint x="575" y="464" as="targetPoint" />
          </mxGeometry>
        </mxCell>
        <mxCell id="IzbF5cxwdpubpWeo_fUA-100" value="" style="endArrow=none;html=1;rounded=0;exitX=0.5;exitY=0;exitDx=0;exitDy=0;entryX=0.5;entryY=1;entryDx=0;entryDy=0;" edge="1" parent="1" source="IzbF5cxwdpubpWeo_fUA-94" target="IzbF5cxwdpubpWeo_fUA-82">
          <mxGeometry relative="1" as="geometry">
            <mxPoint x="515" y="484" as="sourcePoint" />
            <mxPoint x="545" y="464" as="targetPoint" />
          </mxGeometry>
        </mxCell>
        <mxCell id="IzbF5cxwdpubpWeo_fUA-101" value="has" style="shape=rhombus;perimeter=rhombusPerimeter;whiteSpace=wrap;html=1;align=center;" vertex="1" parent="1">
          <mxGeometry x="350" y="494" width="60" height="40" as="geometry" />
        </mxCell>
        <mxCell id="IzbF5cxwdpubpWeo_fUA-102" value="" style="endArrow=none;html=1;rounded=0;exitX=0.5;exitY=1;exitDx=0;exitDy=0;entryX=0.5;entryY=0;entryDx=0;entryDy=0;" edge="1" parent="1" source="IzbF5cxwdpubpWeo_fUA-4" target="IzbF5cxwdpubpWeo_fUA-101">
          <mxGeometry relative="1" as="geometry">
            <mxPoint x="428" y="479" as="sourcePoint" />
            <mxPoint x="428" y="539" as="targetPoint" />
          </mxGeometry>
        </mxCell>
        <mxCell id="IzbF5cxwdpubpWeo_fUA-103" value="1" style="text;strokeColor=none;fillColor=none;spacingLeft=4;spacingRight=4;overflow=hidden;rotatable=0;points=[[0,0.5],[1,0.5]];portConstraint=eastwest;fontSize=12;whiteSpace=wrap;html=1;" vertex="1" parent="1">
          <mxGeometry x="366" y="546" width="40" height="30" as="geometry" />
        </mxCell>
        <mxCell id="IzbF5cxwdpubpWeo_fUA-104" value="" style="endArrow=none;html=1;rounded=0;exitX=0.5;exitY=1;exitDx=0;exitDy=0;entryX=0.5;entryY=0;entryDx=0;entryDy=0;" edge="1" parent="1" source="IzbF5cxwdpubpWeo_fUA-101" target="IzbF5cxwdpubpWeo_fUA-5">
          <mxGeometry relative="1" as="geometry">
            <mxPoint x="390" y="384" as="sourcePoint" />
            <mxPoint x="390" y="434" as="targetPoint" />
          </mxGeometry>
        </mxCell>
        <mxCell id="IzbF5cxwdpubpWeo_fUA-105" value="1" style="text;strokeColor=none;fillColor=none;spacingLeft=4;spacingRight=4;overflow=hidden;rotatable=0;points=[[0,0.5],[1,0.5]];portConstraint=eastwest;fontSize=12;whiteSpace=wrap;html=1;" vertex="1" parent="1">
          <mxGeometry x="366" y="458" width="40" height="30" as="geometry" />
        </mxCell>
        <mxCell id="IzbF5cxwdpubpWeo_fUA-107" value="" style="endArrow=none;html=1;rounded=0;exitX=0.5;exitY=1;exitDx=0;exitDy=0;entryX=0.533;entryY=0.033;entryDx=0;entryDy=0;entryPerimeter=0;" edge="1" parent="1" target="IzbF5cxwdpubpWeo_fUA-5">
          <mxGeometry relative="1" as="geometry">
            <mxPoint x="382.79" y="532" as="sourcePoint" />
            <mxPoint x="382.79" y="564" as="targetPoint" />
          </mxGeometry>
        </mxCell>
        <mxCell id="IzbF5cxwdpubpWeo_fUA-108" value="" style="endArrow=none;html=1;rounded=0;exitX=0.5;exitY=1;exitDx=0;exitDy=0;entryX=0.574;entryY=0.057;entryDx=0;entryDy=0;entryPerimeter=0;" edge="1" parent="1" target="IzbF5cxwdpubpWeo_fUA-101">
          <mxGeometry relative="1" as="geometry">
            <mxPoint x="383.79" y="464" as="sourcePoint" />
            <mxPoint x="384" y="499" as="targetPoint" />
          </mxGeometry>
        </mxCell>
        <mxCell id="IzbF5cxwdpubpWeo_fUA-110" value="has" style="shape=rhombus;perimeter=rhombusPerimeter;whiteSpace=wrap;html=1;align=center;" vertex="1" parent="1">
          <mxGeometry x="546" y="274" width="60" height="50" as="geometry" />
        </mxCell>
        <mxCell id="IzbF5cxwdpubpWeo_fUA-111" value="" style="endArrow=none;html=1;rounded=0;exitX=1;exitY=0.5;exitDx=0;exitDy=0;entryX=0;entryY=0.5;entryDx=0;entryDy=0;" edge="1" parent="1" source="IzbF5cxwdpubpWeo_fUA-1" target="IzbF5cxwdpubpWeo_fUA-110">
          <mxGeometry relative="1" as="geometry">
            <mxPoint x="390" y="284" as="sourcePoint" />
            <mxPoint x="390" y="344" as="targetPoint" />
          </mxGeometry>
        </mxCell>
        <mxCell id="IzbF5cxwdpubpWeo_fUA-112" value="" style="endArrow=none;html=1;rounded=0;exitX=1;exitY=0.5;exitDx=0;exitDy=0;entryX=0;entryY=0.5;entryDx=0;entryDy=0;" edge="1" parent="1" source="IzbF5cxwdpubpWeo_fUA-110" target="IzbF5cxwdpubpWeo_fUA-6">
          <mxGeometry relative="1" as="geometry">
            <mxPoint x="440" y="264" as="sourcePoint" />
            <mxPoint x="620" y="314" as="targetPoint" />
          </mxGeometry>
        </mxCell>
        <mxCell id="IzbF5cxwdpubpWeo_fUA-113" value="1" style="text;strokeColor=none;fillColor=none;spacingLeft=4;spacingRight=4;overflow=hidden;rotatable=0;points=[[0,0.5],[1,0.5]];portConstraint=eastwest;fontSize=12;whiteSpace=wrap;html=1;" vertex="1" parent="1">
          <mxGeometry x="427" y="235" width="23" height="19" as="geometry" />
        </mxCell>
        <mxCell id="IzbF5cxwdpubpWeo_fUA-115" value="" style="endArrow=none;html=1;rounded=0;exitX=0.886;exitY=0.619;exitDx=0;exitDy=0;exitPerimeter=0;entryX=0.011;entryY=0.647;entryDx=0;entryDy=0;entryPerimeter=0;" edge="1" parent="1" source="IzbF5cxwdpubpWeo_fUA-110" target="IzbF5cxwdpubpWeo_fUA-6">
          <mxGeometry relative="1" as="geometry">
            <mxPoint x="720" y="299" as="sourcePoint" />
            <mxPoint x="1000" y="344" as="targetPoint" />
          </mxGeometry>
        </mxCell>
        <mxCell id="IzbF5cxwdpubpWeo_fUA-116" value="M" style="text;strokeColor=none;fillColor=none;spacingLeft=4;spacingRight=4;overflow=hidden;rotatable=0;points=[[0,0.5],[1,0.5]];portConstraint=eastwest;fontSize=12;whiteSpace=wrap;html=1;" vertex="1" parent="1">
          <mxGeometry x="739" y="275" width="23" height="19" as="geometry" />
        </mxCell>
        <mxCell id="IzbF5cxwdpubpWeo_fUA-117" value="works" style="shape=rhombus;perimeter=rhombusPerimeter;whiteSpace=wrap;html=1;align=center;" vertex="1" parent="1">
          <mxGeometry x="540" y="209.5" width="60" height="50" as="geometry" />
        </mxCell>
        <mxCell id="IzbF5cxwdpubpWeo_fUA-119" value="" style="endArrow=none;html=1;rounded=0;entryX=0;entryY=0.5;entryDx=0;entryDy=0;" edge="1" parent="1" target="IzbF5cxwdpubpWeo_fUA-117">
          <mxGeometry relative="1" as="geometry">
            <mxPoint x="430" y="235" as="sourcePoint" />
            <mxPoint x="620" y="309" as="targetPoint" />
          </mxGeometry>
        </mxCell>
        <mxCell id="IzbF5cxwdpubpWeo_fUA-120" value="" style="endArrow=none;html=1;rounded=0;exitX=1;exitY=0.5;exitDx=0;exitDy=0;entryX=0;entryY=0.5;entryDx=0;entryDy=0;" edge="1" parent="1" source="IzbF5cxwdpubpWeo_fUA-117" target="IzbF5cxwdpubpWeo_fUA-2">
          <mxGeometry relative="1" as="geometry">
            <mxPoint x="437" y="245" as="sourcePoint" />
            <mxPoint x="550" y="245" as="targetPoint" />
          </mxGeometry>
        </mxCell>
        <mxCell id="IzbF5cxwdpubpWeo_fUA-121" value="1" style="text;strokeColor=none;fillColor=none;spacingLeft=4;spacingRight=4;overflow=hidden;rotatable=0;points=[[0,0.5],[1,0.5]];portConstraint=eastwest;fontSize=12;whiteSpace=wrap;html=1;" vertex="1" parent="1">
          <mxGeometry x="427" y="211" width="23" height="19" as="geometry" />
        </mxCell>
        <mxCell id="IzbF5cxwdpubpWeo_fUA-122" value="M" style="text;strokeColor=none;fillColor=none;spacingLeft=4;spacingRight=4;overflow=hidden;rotatable=0;points=[[0,0.5],[1,0.5]];portConstraint=eastwest;fontSize=12;whiteSpace=wrap;html=1;" vertex="1" parent="1">
          <mxGeometry x="678.5" y="194" width="23" height="19" as="geometry" />
        </mxCell>
        <mxCell id="IzbF5cxwdpubpWeo_fUA-123" value="" style="endArrow=none;html=1;rounded=0;exitX=0.891;exitY=0.61;exitDx=0;exitDy=0;entryX=0;entryY=0.5;entryDx=0;entryDy=0;exitPerimeter=0;" edge="1" parent="1" source="IzbF5cxwdpubpWeo_fUA-117">
          <mxGeometry relative="1" as="geometry">
            <mxPoint x="600" y="238" as="sourcePoint" />
            <mxPoint x="710" y="213" as="targetPoint" />
          </mxGeometry>
        </mxCell>
        <mxCell id="IzbF5cxwdpubpWeo_fUA-126" value="&lt;span id=&quot;docs-internal-guid-172fcdb6-7fff-b797-0929-80909b8c8616&quot;&gt;&lt;span style=&quot;font-family: Arial, sans-serif; background-color: transparent; font-variant-numeric: normal; font-variant-east-asian: normal; font-variant-alternates: normal; font-variant-position: normal; vertical-align: baseline; white-space-collapse: preserve;&quot;&gt;&lt;font style=&quot;font-size: 9px;&quot;&gt;sell&lt;/font&gt;&lt;/span&gt;&lt;/span&gt;" style="ellipse;whiteSpace=wrap;html=1;align=center;" vertex="1" parent="1">
          <mxGeometry x="500" y="314" width="50" height="20" as="geometry" />
        </mxCell>
        <mxCell id="IzbF5cxwdpubpWeo_fUA-127" value="&lt;span id=&quot;docs-internal-guid-172fcdb6-7fff-b797-0929-80909b8c8616&quot;&gt;&lt;span style=&quot;font-family: Arial, sans-serif; background-color: transparent; font-variant-numeric: normal; font-variant-east-asian: normal; font-variant-alternates: normal; font-variant-position: normal; vertical-align: baseline; white-space-collapse: preserve;&quot;&gt;&lt;font style=&quot;font-size: 9px;&quot;&gt;buy&lt;/font&gt;&lt;/span&gt;&lt;/span&gt;" style="ellipse;whiteSpace=wrap;html=1;align=center;" vertex="1" parent="1">
          <mxGeometry x="606" y="274" width="44" height="15" as="geometry" />
        </mxCell>
        <mxCell id="IzbF5cxwdpubpWeo_fUA-128" value="" style="endArrow=none;html=1;rounded=0;exitX=1;exitY=0.5;exitDx=0;exitDy=0;entryX=0;entryY=1;entryDx=0;entryDy=0;" edge="1" parent="1" source="IzbF5cxwdpubpWeo_fUA-126" target="IzbF5cxwdpubpWeo_fUA-110">
          <mxGeometry relative="1" as="geometry">
            <mxPoint x="440" y="264" as="sourcePoint" />
            <mxPoint x="556" y="309" as="targetPoint" />
          </mxGeometry>
        </mxCell>
        <mxCell id="IzbF5cxwdpubpWeo_fUA-129" value="" style="endArrow=none;html=1;rounded=0;exitX=1;exitY=0;exitDx=0;exitDy=0;entryX=0;entryY=0.5;entryDx=0;entryDy=0;" edge="1" parent="1" source="IzbF5cxwdpubpWeo_fUA-110" target="IzbF5cxwdpubpWeo_fUA-127">
          <mxGeometry relative="1" as="geometry">
            <mxPoint x="560" y="334" as="sourcePoint" />
            <mxPoint x="571" y="322" as="targetPoint" />
          </mxGeometry>
        </mxCell>
        <mxCell id="IzbF5cxwdpubpWeo_fUA-130" value="" style="endArrow=none;html=1;rounded=0;exitX=0.605;exitY=0.825;exitDx=0;exitDy=0;entryX=0.5;entryY=0;entryDx=0;entryDy=0;exitPerimeter=0;" edge="1" parent="1" source="IzbF5cxwdpubpWeo_fUA-77">
          <mxGeometry relative="1" as="geometry">
            <mxPoint x="385.7" y="373" as="sourcePoint" />
            <mxPoint x="385.7" y="423" as="targetPoint" />
          </mxGeometry>
        </mxCell>
        <mxCell id="IzbF5cxwdpubpWeo_fUA-131" value="" style="endArrow=none;html=1;rounded=0;exitX=0.617;exitY=-0.006;exitDx=0;exitDy=0;exitPerimeter=0;" edge="1" parent="1">
          <mxGeometry relative="1" as="geometry">
            <mxPoint x="386.68000000000006" y="273.82000000000005" as="sourcePoint" />
            <mxPoint x="386" y="339" as="targetPoint" />
          </mxGeometry>
        </mxCell>
        <mxCell id="IzbF5cxwdpubpWeo_fUA-132" value="" style="endArrow=none;html=1;rounded=0;entryX=0.936;entryY=0.615;entryDx=0;entryDy=0;entryPerimeter=0;" edge="1" parent="1">
          <mxGeometry relative="1" as="geometry">
            <mxPoint x="729" y="449" as="sourcePoint" />
            <mxPoint x="574.16" y="448.5999999999999" as="targetPoint" />
          </mxGeometry>
        </mxCell>
      </root>
    </mxGraphModel>
  </diagram>
</mxfile>
